<svg version="1.1" viewBox="0.0 0.0 350.5301837270341 170.0524934383202" fill="none" stroke="none" stroke-linecap="square" stroke-miterlimit="10" xmlns:xlink="http://www.w3.org/1999/xlink" xmlns="http://www.w3.org/2000/svg"><clipPath id="p.0"><path d="m0 0l350.53018 0l0 170.05249l-350.53018 0l0 -170.05249z" clip-rule="nonzero"/></clipPath><g clip-path="url(#p.0)"><path fill="#000000" fill-opacity="0.0" d="m0 0l350.53018 0l0 170.05249l-350.53018 0z" fill-rule="evenodd"/><path fill="#333333" d="m0 -0.3832021l351.0866 0l0 170.48819l-351.0866 0z" fill-rule="evenodd"/><path fill="#000000" fill-opacity="0.0" d="m7.5748034 37.711285l335.937 0l0 94.29921l-335.937 0z" fill-rule="evenodd"/><path fill="#ffffff" d="m24.871677 77.43129l0 -20.203129l-7.546875 0l0 -2.703125l18.15625 0l0 2.703125l-7.578125 0l0 20.203129l-3.03125 0zm14.140625 -13.390625l0 -3.2031288l3.203125 0l0 3.2031288l-3.203125 0zm0 13.390625l0 -3.203125l3.203125 0l0 3.203125l-3.203125 0zm22.375 6.734375q-2.328125 -2.9375 -3.9375 -6.875q-1.609375 -3.9375 -1.609375 -8.15625q0 -3.71875 1.203125 -7.125004q1.40625 -3.953125 4.34375 -7.875l2.015625 0q-1.890625 3.25 -2.5 4.640625q-0.953125 2.15625 -1.5 4.5q-0.671875 2.9218788 -0.671875 5.875004q0 7.515625 4.671875 15.015625l-2.015625 0zm4.500004 -12.734375l2.953125 -0.25q0.328125 2.15625 1.515625 3.25q1.203125 1.078125 2.890625 1.078125q2.03125 0 3.4375 -1.53125q1.40625 -1.53125 1.40625 -4.0625q0 -2.40625 -1.359375 -3.796875q-1.34375 -1.390625 -3.53125 -1.390625q-1.359375 0 -2.453125 0.625q-1.09375 0.609375 -1.71875 1.59375l-2.640625 -0.34375l2.21875 -11.765629l11.390625 0l0 2.6875l-9.140625 0l-1.234375 6.15625q2.0625 -1.4375 4.328125 -1.4375q3.0 0 5.0625 2.0781288q2.0625 2.078125 2.0625 5.34375q0 3.109375 -1.8125 5.375q-2.203125 2.78125 -6.015625 2.78125q-3.125 0 -5.109375 -1.75q-1.96875 -1.75 -2.25 -4.640625zm32.578125 3.296875l0 2.703125l-15.140625 0q-0.03125 -1.015625 0.328125 -1.953125q0.578125 -1.546875 1.84375 -3.046875q1.28125 -1.5 3.6875 -3.46875q3.734375 -3.0625 5.046875 -4.84375q1.3125 -1.7968788 1.3125 -3.3906288q0 -1.671875 -1.203125 -2.8125q-1.1875 -1.15625 -3.109375 -1.15625q-2.03125 0 -3.25 1.21875q-1.21875 1.21875 -1.234375 3.375l-2.890625 -0.296875q0.296875 -3.234375 2.234375 -4.921875q1.9375 -1.703125 5.203125 -1.703125q3.296875 0 5.21875 1.828125q1.921875 1.828125 1.921875 4.53125q0 1.375 -0.5625 2.703125q-0.5625 1.3281288 -1.875 2.7968788q-1.296875 1.46875 -4.328125 4.03125q-2.53125 2.125 -3.25 2.890625q-0.71875 0.75 -1.1875 1.515625l11.234375 0zm3.015625 -8.59375q0 -4.062504 0.828125 -6.531254q0.84375 -2.484375 2.484375 -3.828125q1.65625 -1.34375 4.15625 -1.34375q1.84375 0 3.234375 0.75q1.390625 0.734375 2.296875 2.140625q0.90625 1.390625 1.421875 3.40625q0.515625 2.0 0.515625 5.406254q0 4.03125 -0.828125 6.515625q-0.828125 2.46875 -2.484375 3.828125q-1.640625 1.34375 -4.15625 1.34375q-3.3125 0 -5.203125 -2.375q-2.265625 -2.859375 -2.265625 -9.3125zm2.890625 0q0 5.640625 1.3125 7.515625q1.328125 1.859375 3.265625 1.859375q1.9375 0 3.25 -1.875q1.328125 -1.875 1.328125 -7.5q0 -5.656254 -1.328125 -7.515629q-1.3125 -1.859375 -3.28125 -1.859375q-1.9375 0 -3.09375 1.640625q-1.453125 2.09375 -1.453125 7.734379zm17.53125 18.03125l-2.015625 0q4.671875 -7.5 4.671875 -15.015625q0 -2.9375 -0.671875 -5.828129q-0.53125 -2.34375 -1.484375 -4.5q-0.609375 -1.40625 -2.515625 -4.6875l2.015625 0q2.9375 3.921875 4.34375 7.875q1.203125 3.4062538 1.203125 7.125004q0 4.21875 -1.625 8.15625q-1.609375 3.9375 -3.921875 6.875zm25.937492 -6.734375l0 -5.484375l-9.9375 0l0 -2.578125l10.453125 -14.843754l2.296875 0l0 14.843754l3.09375 0l0 2.578125l-3.09375 0l0 5.484375l-2.8125 0zm0 -8.0625l0 -10.328129l-7.171875 10.328129l7.171875 0zm8.78125 -3.234375q0 -4.062504 0.828125 -6.531254q0.84375 -2.484375 2.484375 -3.828125q1.65625 -1.34375 4.15625 -1.34375q1.84375 0 3.234375 0.75q1.390625 0.734375 2.296875 2.140625q0.90625 1.390625 1.421875 3.40625q0.515625 2.0 0.515625 5.406254q0 4.03125 -0.828125 6.515625q-0.828125 2.46875 -2.484375 3.828125q-1.640625 1.34375 -4.15625 1.34375q-3.3125 0 -5.203125 -2.375q-2.265625 -2.859375 -2.265625 -9.3125zm2.890625 0q0 5.640625 1.3125 7.515625q1.328125 1.859375 3.265625 1.859375q1.9375 0 3.25 -1.875q1.328125 -1.875 1.328125 -7.5q0 -5.656254 -1.328125 -7.515629q-1.3125 -1.859375 -3.28125 -1.859375q-1.9375 0 -3.09375 1.640625q-1.453125 2.09375 -1.453125 7.734379zm14.90625 5.296875l2.953125 -0.25q0.328125 2.15625 1.515625 3.25q1.203125 1.078125 2.890625 1.078125q2.03125 0 3.4375 -1.53125q1.40625 -1.53125 1.40625 -4.0625q0 -2.40625 -1.359375 -3.796875q-1.34375 -1.390625 -3.53125 -1.390625q-1.359375 0 -2.453125 0.625q-1.09375 0.609375 -1.71875 1.59375l-2.640625 -0.34375l2.21875 -11.765629l11.390625 0l0 2.6875l-9.140625 0l-1.234375 6.15625q2.0625 -1.4375 4.328125 -1.4375q3.0 0 5.0625 2.0781288q2.0625 2.078125 2.0625 5.34375q0 3.109375 -1.8125 5.375q-2.203125 2.78125 -6.015625 2.78125q-3.125 0 -5.109375 -1.75q-1.96875 -1.75 -2.25 -4.640625zm17.484375 -0.875l0 -2.828125l8.640625 0l0 2.828125l-8.640625 0zm15.296875 -5.546875q-1.75 -0.640625 -2.59375 -1.8281288q-0.84375 -1.1875 -0.84375 -2.84375q0 -2.5 1.796875 -4.203125q1.796875 -1.703125 4.78125 -1.703125q3.0 0 4.828125 1.75q1.828125 1.734375 1.828125 4.234375q0 1.59375 -0.84375 2.78125q-0.828125 1.1718788 -2.53125 1.8125038q2.109375 0.6875 3.203125 2.21875q1.109375 1.53125 1.109375 3.65625q0 2.9375 -2.078125 4.9375q-2.078125 2.0 -5.46875 2.0q-3.390625 0 -5.46875 -2.0q-2.078125 -2.015625 -2.078125 -5.015625q0 -2.234375 1.125 -3.734375q1.140625 -1.515625 3.234375 -2.0625zm-0.5625 -4.765629q0 1.625 1.046875 2.65625q1.046875 1.03125 2.71875 1.03125q1.625 0 2.65625 -1.015625q1.046875 -1.03125 1.046875 -2.515625q0 -1.546875 -1.078125 -2.59375q-1.0625 -1.0625 -2.65625 -1.0625q-1.609375 0 -2.671875 1.03125q-1.0625 1.03125 -1.0625 2.46875zm-0.90625 10.578129q0 1.203125 0.5625 2.328125q0.578125 1.125 1.703125 1.75q1.125 0.609375 2.421875 0.609375q2.015625 0 3.328125 -1.296875q1.3125 -1.296875 1.3125 -3.296875q0 -2.03125 -1.359375 -3.359375q-1.34375 -1.328125 -3.375 -1.328125q-1.984375 0 -3.296875 1.3125q-1.296875 1.3125 -1.296875 3.28125zm29.53125 -10.687504l-2.796875 0.21875q-0.375 -1.65625 -1.0625 -2.40625q-1.140625 -1.203125 -2.8125 -1.203125q-1.34375 0 -2.359375 0.75q-1.328125 0.96875 -2.09375 2.828125q-0.765625 1.859375 -0.796875 5.296879q1.015625 -1.546875 2.484375 -2.2968788q1.46875 -0.75 3.078125 -0.75q2.8125 0 4.78125 2.0781288q1.984375 2.0625 1.984375 5.34375q0 2.15625 -0.9375 4.015625q-0.921875 1.84375 -2.546875 2.828125q-1.625 0.984375 -3.6875 0.984375q-3.515625 0 -5.734375 -2.578125q-2.21875 -2.59375 -2.21875 -8.53125q0 -6.640629 2.453125 -9.656254q2.140625 -2.625 5.765625 -2.625q2.703125 0 4.421875 1.515625q1.734375 1.515625 2.078125 4.1875zm-11.484375 9.875004q0 1.453125 0.609375 2.78125q0.625 1.328125 1.734375 2.03125q1.109375 0.6875 2.328125 0.6875q1.78125 0 3.0625 -1.4375q1.28125 -1.4375 1.28125 -3.90625q0 -2.375 -1.265625 -3.734375q-1.265625 -1.375 -3.1875 -1.375q-1.90625 0 -3.234375 1.375q-1.328125 1.359375 -1.328125 3.578125zm14.6875 -3.875q0 -4.062504 0.828125 -6.531254q0.84375 -2.484375 2.484375 -3.828125q1.65625 -1.34375 4.15625 -1.34375q1.84375 0 3.234375 0.75q1.390625 0.734375 2.296875 2.140625q0.90625 1.390625 1.421875 3.40625q0.515625 2.0 0.515625 5.406254q0 4.03125 -0.828125 6.515625q-0.828125 2.46875 -2.484375 3.828125q-1.640625 1.34375 -4.15625 1.34375q-3.3125 0 -5.203125 -2.375q-2.265625 -2.859375 -2.265625 -9.3125zm2.890625 0q0 5.640625 1.3125 7.515625q1.328125 1.859375 3.265625 1.859375q1.9375 0 3.25 -1.875q1.328125 -1.875 1.328125 -7.5q0 -5.656254 -1.328125 -7.515629q-1.3125 -1.859375 -3.28125 -1.859375q-1.9375 0 -3.09375 1.640625q-1.453125 2.09375 -1.453125 7.734379zm25.5 11.296875l-2.8125 0l0 -17.921879q-1.015625 0.96875 -2.671875 1.9375q-1.640625 0.96875 -2.953125 1.453125l0 -2.71875q2.359375 -1.109375 4.125 -2.6875q1.765625 -1.578125 2.5 -3.0625l1.8125 0l0 23.000004z" fill-rule="nonzero"/><path fill="#ffffff" d="m19.106052 115.43129l0 -22.90625l16.5625 0l0 2.703125l-13.53125 0l0 7.015625l12.671875 0l0 2.6875l-12.671875 0l0 7.796875l14.0625 0l0 2.703125l-17.09375 0zm21.703125 -13.390625l0 -3.203125l3.203125 0l0 3.203125l-3.203125 0zm0 13.390625l0 -3.203125l3.203125 0l0 3.203125l-3.203125 0zm27.828129 -2.046875q-1.5625 1.328125 -3.015625 1.875q-1.4375 0.546875 -3.0937538 0.546875q-2.734375 0 -4.203125 -1.328125q-1.46875 -1.34375 -1.46875 -3.421875q0 -1.21875 0.546875 -2.21875q0.5625 -1.015625 1.453125 -1.625q0.90625 -0.609375 2.03125 -0.921875q0.828125 -0.21875 2.5 -0.421875q3.4062538 -0.40625 5.015629 -0.96875q0.015625 -0.578125 0.015625 -0.734375q0 -1.71875 -0.796875 -2.421875q-1.078125 -0.953125 -3.203125 -0.953125q-1.9843788 0 -2.9375038 0.703125q-0.9375 0.6875 -1.390625 2.453125l-2.75 -0.375q0.375 -1.765625 1.234375 -2.84375q0.859375 -1.09375 2.484375 -1.671875q1.625 -0.59375 3.7656288 -0.59375q2.125 0 3.453125 0.5q1.328125 0.5 1.953125 1.265625q0.625 0.75 0.875 1.90625q0.140625 0.71875 0.140625 2.59375l0 3.75q0 3.921875 0.171875 4.96875q0.1875 1.03125 0.71875 1.984375l-2.9375 0q-0.4375 -0.875 -0.5625 -2.046875zm-0.234375 -6.28125q-1.53125 0.625 -4.593754 1.0625q-1.734375 0.25 -2.453125 0.5625q-0.71875 0.3125 -1.109375 0.921875q-0.390625 0.59375 -0.390625 1.328125q0 1.125 0.84375 1.875q0.859375 0.75 2.5 0.75q1.6250038 0 2.8906288 -0.703125q1.265625 -0.71875 1.859375 -1.953125q0.453125 -0.953125 0.453125 -2.8125l0 -1.03125zm5.71875 8.328125l0 -2.28125l10.5625 -12.125q-1.796875 0.09375 -3.171875 0.09375l-6.765625 0l0 -2.28125l13.5625 0l0 1.859375l-8.984375 10.53125l-1.734375 1.921875q1.890625 -0.140625 3.546875 -0.140625l7.671875 0l0 2.421875l-14.6875 0zm17.421875 0l0 -22.90625l2.8125 0l0 22.90625l-2.8125 0zm18.53125 -5.34375l2.90625 0.359375q-0.6875 2.546875 -2.546875 3.953125q-1.859375 1.40625 -4.75 1.40625q-3.640625 0 -5.78125 -2.234375q-2.125 -2.25 -2.125 -6.296875q0 -4.1875 2.15625 -6.5q2.15625 -2.3125 5.59375 -2.3125q3.328125 0 5.4375 2.265625q2.109375 2.265625 2.109375 6.375q0 0.25 -0.015625 0.75l-12.375 0q0.15625 2.734375 1.546875 4.1875q1.390625 1.453125 3.46875 1.453125q1.546875 0 2.640625 -0.8125q1.09375 -0.8125 1.734375 -2.59375zm-9.234375 -4.546875l9.265625 0q-0.1875 -2.09375 -1.0625 -3.140625q-1.34375 -1.625 -3.484375 -1.625q-1.9375 0 -3.265625 1.296875q-1.3125 1.296875 -1.453125 3.46875zm15.671875 9.890625l0 -16.59375l2.53125 0l0 2.359375q1.828125 -2.734375 5.28125 -2.734375q1.5 0 2.75 0.546875q1.2656174 0.53125 1.8906174 1.40625q0.625 0.875 0.875 2.078125q0.15625 0.78125 0.15625 2.734375l0 10.203125l-2.8124924 0l0 -10.09375q0 -1.71875 -0.328125 -2.5625q-0.328125 -0.859375 -1.171875 -1.359375q-0.828125 -0.515625 -1.953125 -0.515625q-1.796875 0 -3.109375 1.140625q-1.296875 1.140625 -1.296875 4.328125l0 9.0625l-2.8125 0zm28.562492 0l0 -2.09375q-1.578125 2.46875 -4.640625 2.46875q-1.984375 0 -3.65625 -1.09375q-1.65625 -1.09375 -2.578125 -3.046875q-0.90625 -1.96875 -0.90625 -4.515625q0 -2.484375 0.828125 -4.5q0.828125 -2.03125 2.484375 -3.109375q1.65625 -1.078125 3.703125 -1.078125q1.5 0 2.671875 0.640625q1.171875 0.625 1.90625 1.640625l0 -8.21875l2.796875 0l0 22.90625l-2.609375 0zm-8.890625 -8.28125q0 3.1875 1.34375 4.765625q1.34375 1.578125 3.171875 1.578125q1.84375 0 3.125 -1.5q1.296875 -1.515625 1.296875 -4.609375q0 -3.40625 -1.3125 -5.0q-1.3125 -1.59375 -3.234375 -1.59375q-1.875 0 -3.140625 1.53125q-1.25 1.53125 -1.25 4.828125zm15.9375 -11.390625l0 -3.234375l2.8125 0l0 3.234375l-2.8125 0zm0 19.671875l0 -16.59375l2.8125 0l0 16.59375l-2.8125 0zm7.09375 0l0 -16.59375l2.53125 0l0 2.359375q1.828125 -2.734375 5.28125 -2.734375q1.5 0 2.75 0.546875q1.265625 0.53125 1.890625 1.40625q0.625 0.875 0.875 2.078125q0.15625 0.78125 0.15625 2.734375l0 10.203125l-2.8125 0l0 -10.09375q0 -1.71875 -0.328125 -2.5625q-0.328125 -0.859375 -1.171875 -1.359375q-0.828125 -0.515625 -1.953125 -0.515625q-1.796875 0 -3.109375 1.140625q-1.296875 1.140625 -1.296875 4.328125l0 9.0625l-2.8125 0zm17.28125 1.375l2.734375 0.40625q0.171875 1.265625 0.953125 1.84375q1.046875 0.78125 2.859375 0.78125q1.953125 0 3.015625 -0.78125q1.0625 -0.78125 1.4375 -2.1875q0.21875 -0.859375 0.203125 -3.609375q-1.84375 2.171875 -4.59375 2.171875q-3.421875 0 -5.296875 -2.46875q-1.875 -2.46875 -1.875 -5.921875q0 -2.375 0.859375 -4.375q0.859375 -2.015625 2.484375 -3.109375q1.640625 -1.09375 3.84375 -1.09375q2.9375 0 4.84375 2.375l0 -2.0l2.59375 0l0 14.34375q0 3.875 -0.796875 5.484375q-0.78125 1.625 -2.5 2.5625q-1.703125 0.9375 -4.203125 0.9375q-2.96875 0 -4.796875 -1.34375q-1.828125 -1.328125 -1.765625 -4.015625zm2.328125 -9.96875q0 3.265625 1.296875 4.765625q1.296875 1.5 3.25 1.5q1.9375 0 3.25 -1.484375q1.3125 -1.5 1.3125 -4.6875q0 -3.046875 -1.359375 -4.59375q-1.34375 -1.546875 -3.25 -1.546875q-1.875 0 -3.1875 1.53125q-1.3125 1.515625 -1.3125 4.515625zm32.015625 6.046875q-1.015625 1.171875 -2.28125 1.890625q-1.25 0.703125 -2.515625 0.703125q-1.390625 0 -2.703125 -0.8125q-1.3125 -0.8125 -2.140625 -2.5q-0.8125 -1.6875 -0.8125 -3.703125q0 -2.484375 1.265625 -4.96875q1.28125 -2.5 3.171875 -3.75q1.890625 -1.25 3.671875 -1.25q1.359375 0 2.59375 0.71875q1.234375 0.703125 2.125 2.15625l0.53125 -2.421875l2.796875 0l-2.25 10.484375q-0.46875 2.1875 -0.46875 2.421875q0 0.421875 0.3125 0.734375q0.328125 0.296875 0.78125 0.296875q0.828125 0 2.171875 -0.953125q1.78125 -1.25 2.8125 -3.34375q1.046875 -2.109375 1.046875 -4.34375q0 -2.609375 -1.34375 -4.875q-1.328125 -2.265625 -3.984375 -3.625q-2.640625 -1.359375 -5.84375 -1.359375q-3.65625 0 -6.6875 1.71875q-3.015625 1.703125 -4.6875 4.90625q-1.65625 3.1875 -1.65625 6.84375q0 3.828125 1.65625 6.59375q1.671875 2.765625 4.8125 4.078125q3.15625 1.328125 6.984375 1.328125q4.09375 0 6.859375 -1.375q2.765625 -1.375 4.140625 -3.34375l2.828125 0q-0.796875 1.640625 -2.734375 3.34375q-1.9375 1.703125 -4.609375 2.6875q-2.671875 1.0 -6.4375 1.0q-3.46875 0 -6.40625 -0.890625q-2.921875 -0.890625 -4.984375 -2.6875q-2.0625 -1.78125 -3.109375 -4.109375q-1.3125 -2.953125 -1.3125 -6.375q0 -3.8125 1.5625 -7.265625q1.90625 -4.234375 5.40625 -6.484375q3.515625 -2.25 8.515625 -2.25q3.875 0 6.953125 1.59375q3.09375 1.578125 4.875 4.71875q1.515625 2.703125 1.515625 5.875q0 4.53125 -3.1875 8.046875q-2.84375 3.15625 -6.21875 3.15625q-1.078125 0 -1.75 -0.328125q-0.65625 -0.328125 -0.96875 -0.9375q-0.203125 -0.390625 -0.296875 -1.34375zm-7.5625 -4.234375q0 2.140625 1.015625 3.328125q1.015625 1.1875 2.328125 1.1875q0.875 0 1.84375 -0.515625q0.96875 -0.53125 1.84375 -1.5625q0.890625 -1.03125 1.453125 -2.609375q0.5625 -1.59375 0.5625 -3.1875q0 -2.125 -1.0625 -3.296875q-1.046875 -1.171875 -2.5625 -1.171875q-1.0 0 -1.890625 0.515625q-0.875 0.5 -1.703125 1.625q-0.828125 1.125 -1.328125 2.734375q-0.5 1.609375 -0.5 2.953125zm34.84375 0.703125l2.765625 0.359375q-0.453125 2.859375 -2.328125 4.484375q-1.859375 1.609375 -4.578125 1.609375q-3.40625 0 -5.484375 -2.21875q-2.0625 -2.234375 -2.0625 -6.390625q0 -2.6875 0.890625 -4.703125q0.890625 -2.015625 2.703125 -3.015625q1.828125 -1.015625 3.96875 -1.015625q2.703125 0 4.421875 1.375q1.71875 1.359375 2.203125 3.875l-2.734375 0.421875q-0.390625 -1.671875 -1.390625 -2.515625q-0.984375 -0.84375 -2.390625 -0.84375q-2.125 0 -3.453125 1.53125q-1.328125 1.515625 -1.328125 4.8125q0 3.34375 1.28125 4.859375q1.28125 1.515625 3.34375 1.515625q1.65625 0 2.765625 -1.015625q1.109375 -1.015625 1.40625 -3.125zm4.125 -2.21875q0 -4.609375 2.5625 -6.828125q2.140625 -1.84375 5.21875 -1.84375q3.421875 0 5.59375 2.25q2.171875 2.234375 2.171875 6.1875q0 3.203125 -0.96875 5.046875q-0.953125 1.828125 -2.796875 2.84375q-1.828125 1.015625 -4.0 1.015625q-3.484375 0 -5.640625 -2.234375q-2.140625 -2.234375 -2.140625 -6.4375zm2.890625 0q0 3.1875 1.390625 4.78125q1.390625 1.578125 3.5 1.578125q2.09375 0 3.484375 -1.59375q1.390625 -1.59375 1.390625 -4.859375q0 -3.078125 -1.40625 -4.65625q-1.390625 -1.59375 -3.46875 -1.59375q-2.109375 0 -3.5 1.578125q-1.390625 1.578125 -1.390625 4.765625zm14.078125 8.296875l6.0625 -8.625l-5.609375 -7.96875l3.515625 0l2.546875 3.890625q0.71875 1.109375 1.15625 1.859375q0.6875 -1.03125 1.265625 -1.828125l2.796875 -3.921875l3.359375 0l-5.734375 7.8125l6.171875 8.78125l-3.453125 0l-3.40625 -5.15625l-0.90625 -1.390625l-4.359375 6.546875l-3.40625 0zm18.671875 0l0 -3.203125l3.203125 0l0 3.203125l-3.203125 0zm8.09375 0l0 -16.59375l2.53125 0l0 2.359375q1.828125 -2.734375 5.28125 -2.734375q1.5 0 2.75 0.546875q1.265625 0.53125 1.890625 1.40625q0.625 0.875 0.875 2.078125q0.15625 0.78125 0.15625 2.734375l0 10.203125l-2.8125 0l0 -10.09375q0 -1.71875 -0.328125 -2.5625q-0.328125 -0.859375 -1.171875 -1.359375q-0.828125 -0.515625 -1.953125 -0.515625q-1.796875 0 -3.109375 1.140625q-1.296875 1.140625 -1.296875 4.328125l0 9.0625l-2.8125 0zm29.15625 -5.34375l2.90625 0.359375q-0.6875 2.546875 -2.546875 3.953125q-1.859375 1.40625 -4.75 1.40625q-3.640625 0 -5.78125 -2.234375q-2.125 -2.25 -2.125 -6.296875q0 -4.1875 2.15625 -6.5q2.15625 -2.3125 5.59375 -2.3125q3.328125 0 5.4375 2.265625q2.109375 2.265625 2.109375 6.375q0 0.25 -0.015625 0.75l-12.375 0q0.15625 2.734375 1.546875 4.1875q1.390625 1.453125 3.46875 1.453125q1.546875 0 2.640625 -0.8125q1.09375 -0.8125 1.734375 -2.59375zm-9.234375 -4.546875l9.265625 0q-0.1875 -2.09375 -1.0625 -3.140625q-1.34375 -1.625 -3.484375 -1.625q-1.9375 0 -3.265625 1.296875q-1.3125 1.296875 -1.453125 3.46875zm21.8125 7.375l0.40625 2.484375q-1.1875 0.25 -2.125 0.25q-1.53125 0 -2.375 -0.484375q-0.84375 -0.484375 -1.1875 -1.265625q-0.34375 -0.796875 -0.34375 -3.328125l0 -9.546875l-2.0625 0l0 -2.1875l2.0625 0l0 -4.109375l2.796875 -1.6875l0 5.796875l2.828125 0l0 2.1875l-2.828125 0l0 9.703125q0 1.203125 0.140625 1.546875q0.15625 0.34375 0.484375 0.546875q0.34375 0.203125 0.96875 0.203125q0.46875 0 1.234375 -0.109375z" fill-rule="nonzero"/></g></svg>