<svg version="1.1" viewBox="0.0 0.0 231.56430446194227 265.7296587926509" fill="none" stroke="none" stroke-linecap="square" stroke-miterlimit="10" xmlns:xlink="http://www.w3.org/1999/xlink" xmlns="http://www.w3.org/2000/svg"><clipPath id="p.0"><path d="m0 0l231.5643 0l0 265.72964l-231.5643 0l0 -265.72964z" clip-rule="nonzero"/></clipPath><g clip-path="url(#p.0)"><path fill="#000000" fill-opacity="0.0" d="m0 0l231.5643 0l0 265.72964l-231.5643 0z" fill-rule="evenodd"/><path fill="#000000" d="m0 84.942566l120.20604 0l0 -21.289024l75.44751 64.34646l-75.44751 64.34645l0 -21.289017l-120.20604 0z" fill-rule="evenodd"/><path stroke="#000000" stroke-width="1.0" stroke-linejoin="round" stroke-linecap="butt" d="m0 84.942566l120.20604 0l0 -21.289024l75.44751 64.34646l-75.44751 64.34645l0 -21.289017l-120.20604 0z" fill-rule="evenodd"/><path fill="#000000" fill-opacity="0.0" d="m55.677166 78.2021l16.251965 0.15747833" fill-rule="evenodd"/><path stroke="#000000" stroke-width="1.0" stroke-linejoin="round" stroke-linecap="butt" d="m55.677166 78.2021l16.251965 0.15747833" fill-rule="evenodd"/><path fill="#000000" fill-opacity="0.0" d="m55.677166 181.979l16.251965 0.15748596" fill-rule="evenodd"/><path stroke="#000000" stroke-width="1.0" stroke-linejoin="round" stroke-linecap="butt" d="m55.677166 181.979l16.251965 0.15748596" fill-rule="evenodd"/><path fill="#000000" fill-opacity="0.0" d="m71.92913 78.35958l0.12598419 -61.95276" fill-rule="evenodd"/><path stroke="#000000" stroke-width="1.0" stroke-linejoin="round" stroke-linecap="butt" d="m71.92913 78.35958l0.12598419 -61.95276" fill-rule="evenodd"/><path fill="#000000" fill-opacity="0.0" d="m71.7979 247.72704l0.25196838 -65.76378" fill-rule="evenodd"/><path stroke="#000000" stroke-width="1.0" stroke-linejoin="round" stroke-linecap="butt" d="m71.7979 247.72704l0.25196838 -65.76378" fill-rule="evenodd"/><path fill="#000000" fill-opacity="0.0" d="m71.3832 248.00262l144.28348 -0.03149414" fill-rule="evenodd"/><path stroke="#000000" stroke-width="1.0" stroke-linejoin="round" stroke-linecap="butt" d="m71.3832 248.00262l144.28348 -0.03149414" fill-rule="evenodd"/><path fill="#000000" fill-opacity="0.0" d="m72.0 16.75328l145.00787 -0.28346443" fill-rule="evenodd"/><path stroke="#000000" stroke-width="1.0" stroke-linejoin="round" stroke-linecap="butt" d="m72.0 16.75328l145.00787 -0.28346443" fill-rule="evenodd"/><path fill="#000000" fill-opacity="0.0" d="m216.6378 16.485565l-1.4173279 231.9685" fill-rule="evenodd"/><path stroke="#000000" stroke-width="1.0" stroke-linejoin="round" stroke-linecap="butt" d="m216.6378 16.485565l-1.4173279 231.9685" fill-rule="evenodd"/><path fill="#000000" fill-opacity="0.0" d="m55.35958 78.29921l0.31496048 -78.29921" fill-rule="evenodd"/><path stroke="#000000" stroke-width="1.0" stroke-linejoin="round" stroke-linecap="butt" d="m55.35958 78.29921l0.31496048 -78.29921" fill-rule="evenodd"/><path fill="#000000" fill-opacity="0.0" d="m55.519684 181.90027l0 82.70865" fill-rule="evenodd"/><path stroke="#000000" stroke-width="1.0" stroke-linejoin="round" stroke-linecap="butt" d="m55.519684 181.90027l0 82.70865" fill-rule="evenodd"/><path fill="#000000" fill-opacity="0.0" d="m231.53018 1.8871391l0.7873993 261.16534" fill-rule="evenodd"/><path stroke="#000000" stroke-width="1.0" stroke-linejoin="round" stroke-linecap="butt" d="m231.53018 1.8871391l0.7873993 261.16534" fill-rule="evenodd"/><path fill="#000000" fill-opacity="0.0" d="m55.04462 0.32020998l177.16536 2.2047243" fill-rule="evenodd"/><path stroke="#000000" stroke-width="1.0" stroke-linejoin="round" stroke-linecap="butt" d="m55.04462 0.32020998l177.16536 2.2047243" fill-rule="evenodd"/><path fill="#000000" fill-opacity="0.0" d="m55.04462 265.08136l178.26772 -0.62991333" fill-rule="evenodd"/><path stroke="#000000" stroke-width="1.0" stroke-linejoin="round" stroke-linecap="butt" d="m55.04462 265.08136l178.26772 -0.62991333" fill-rule="evenodd"/><path fill="#000000" d="m54.412075 78.456696l17.71391 0l-0.6325455 -60.737534l143.62204 -1.9002628l0 231.56432l-141.09186 1.265091l-3.1627274 -65.79791l-14.551182 0.6325531l-0.6325455 80.98425l176.51968 0l-1.265091 -263.19946l-175.88715 0z" fill-rule="evenodd"/><path stroke="#000000" stroke-width="1.0" stroke-linejoin="round" stroke-linecap="butt" d="m54.412075 78.456696l17.71391 0l-0.6325455 -60.737534l143.62204 -1.9002628l0 231.56432l-141.09186 1.265091l-3.1627274 -65.79791l-14.551182 0.6325531l-0.6325455 80.98425l176.51968 0l-1.265091 -263.19946l-175.88715 0z" fill-rule="evenodd"/></g></svg>